<svg xmlns="http://www.w3.org/2000/svg" enable-background="new 0 0 24 24" viewBox="0 0 24 24" id="auto-brightness">
  <g id="_icons">
    <path d="M11.0801 4.3799c.0498.1201.1201.23.21.3301C11.4795 4.8896 11.7402 5 12 5c.0596 0 .1299-.0103.1895-.02.0703-.0103.1299-.0303.1904-.0601.0596-.02.1201-.0503.1797-.0903C12.6094 4.7998 12.6602 4.75 12.71 4.71c.0898-.1001.1602-.21.21-.3301S13 4.1299 13 4c0-.2603-.1104-.52-.29-.71-.0498-.04-.1006-.0801-.1504-.1201-.0596-.04-.1201-.0703-.1797-.0903-.0605-.0298-.1201-.0498-.1904-.0596-.3193-.0703-.6699.04-.8994.27C11.1094 3.48 11 3.7397 11 4 11 4.1299 11.0303 4.2598 11.0801 4.3799zM18.5801 5.96c-.0498-.1201-.1201-.23-.2207-.3203-.04-.0498-.0898-.0898-.1494-.1299C18.1602 5.48 18.0996 5.4399 18.04 5.4199c-.0605-.0303-.1201-.04-.1904-.0601-.3301-.0601-.6699.04-.8994.2798-.1904.1802-.29.4399-.29.7002 0 .1299.0195.2598.0693.3901.0508.1196.1299.23.2207.3198.1895.1899.4395.29.71.29.0596 0 .1299 0 .1895-.02C17.9199 7.3101 17.9795 7.29 18.04 7.27 18.0996 7.2397 18.1602 7.21 18.21 7.1797c.0596-.04.1094-.0801.1494-.1299C18.46 6.96 18.5303 6.8496 18.5801 6.73c.0498-.1304.0693-.25.0693-.3901C18.6494 6.21 18.6299 6.0796 18.5801 5.96zM19.0801 12.3799c.0498.1201.1201.23.21.3301C19.4795 12.8896 19.7402 13 20 13s.5195-.1104.71-.29c.0898-.1001.1602-.21.21-.3301S21 12.1299 21 12c0-.1304-.0303-.2603-.0801-.3804-.0498-.1196-.1201-.23-.21-.3296-.3701-.3701-1.0498-.3701-1.4199 0-.0898.0996-.1602.21-.21.3296C19.0195 11.7397 19 11.8696 19 12 19 12.1299 19.0195 12.2598 19.0801 12.3799zM17.6602 18.6597c.0596 0 .1299-.0098.1895-.02.0703-.02.1299-.0298.1904-.0601.0596-.0195.1201-.0596.1699-.0898.0596-.04.1094-.0801.1494-.1299.1006-.0898.1709-.2002.2207-.3198.0498-.1201.0693-.25.0693-.3804 0-.27-.0996-.5298-.29-.71-.3594-.3701-1.04-.3701-1.4092 0-.1904.1899-.29.4399-.29.71 0 .2603.0996.52.29.7002C17.1396 18.5498 17.3896 18.6597 17.6602 18.6597zM11.29 19.29C11.1094 19.48 11 19.7397 11 20c0 .2598.1094.52.29.71C11.4795 20.8896 11.7295 21 12 21c.2695 0 .5195-.1104.71-.29C12.8896 20.52 13 20.2598 13 20c0-.2603-.1104-.52-.29-.71C12.3398 18.9199 11.6602 18.9199 11.29 19.29zM5.4199 18.04c.0498.1196.1201.23.2197.3198.04.0498.0898.0898.1504.1299C5.8398 18.52 5.8994 18.5601 5.96 18.5796c.0596.0303.1201.04.1895.0601.0605.0103.1309.02.1904.02.0703 0 .1299-.0098.2002-.02.0596-.02.1201-.0298.1797-.0601.0605-.0195.1201-.0596.1797-.0898.0508-.04.1006-.0801.1504-.1299C7.1396 18.27 7.2197 18.1597 7.2695 18.04c.0498-.1201.0703-.25.0703-.3804 0-.27-.0996-.52-.29-.71-.3701-.3701-1.0498-.3701-1.4102 0-.1895.1899-.2998.4399-.2998.71C5.3398 17.79 5.3701 17.9199 5.4199 18.04zM3.29 12.71C3.4795 12.8896 3.7402 13 4 13s.5195-.1104.71-.29C4.8896 12.52 5 12.2598 5 12c0-.2603-.1104-.52-.29-.71-.1006-.0903-.21-.1602-.3301-.2104C4.0098 10.9199 3.5693 11.02 3.29 11.29 3.1094 11.48 3 11.7397 3 12 3 12.2598 3.1094 12.52 3.29 12.71zM5.6396 7.0498c.04.0498.0898.0898.1504.1201C5.8398 7.21 5.8994 7.2397 5.96 7.27c.0596.02.1201.04.1895.0498.0605.02.1309.02.1904.02.0703 0 .1299 0 .2002-.02C6.5996 7.3101 6.6602 7.29 6.7197 7.27 6.7803 7.2397 6.8398 7.21 6.8994 7.1699 6.9502 7.1396 7 7.0996 7.0498 7.0498c.1904-.1802.29-.4399.29-.71 0-.2603-.0996-.52-.29-.7002C6.6797 5.2598 6 5.27 5.6396 5.6396 5.4502 5.8198 5.3398 6.0796 5.3398 6.3398 5.3398 6.6099 5.4502 6.8599 5.6396 7.0498zM18 12c0-1.3208-.416-2.5669-1.2031-3.6045-.0009-.0012-.0025-.0018-.0035-.003C15.6633 6.8947 13.8722 6 12 6c-3.3086 0-6 2.6914-6 6 0 1.875.8965 3.6694 2.3984 4.7993.0028.0021.0062.0027.0091.0048C9.4423 17.586 10.6846 18 12 18 15.3086 18 18 15.3086 18 12zM12 8c.9609 0 1.8906.354 2.6123.9736l-5.6387 5.6387C8.3535 13.8911 8 12.9614 8 12 8 9.7944 9.7939 8 12 8z"></path>
  </g>
</svg>
