<svg xmlns="http://www.w3.org/2000/svg" xmlns:xlink="http://www.w3.org/1999/xlink" width="119" zoomAndPan="magnify" viewBox="0 0 89.25 30.000001" height="40" preserveAspectRatio="xMidYMid meet" version="1.0"><defs><g/><clipPath id="81028a84f9"><path d="M 21.097656 4.0625 L 28.109375 4.0625 L 28.109375 27.074219 L 21.097656 27.074219 Z M 21.097656 4.0625 " clip-rule="nonzero"/></clipPath><clipPath id="27107ab1f2"><path d="M 28.109375 6.398438 L 28.109375 27.0625 L 21.097656 24.722656 L 21.097656 4.0625 Z M 28.109375 6.398438 " clip-rule="nonzero"/></clipPath><clipPath id="5340952ea9"><path d="M 15.234375 4.058594 L 21.097656 4.058594 L 21.097656 10.65625 L 15.234375 10.65625 Z M 15.234375 4.058594 " clip-rule="nonzero"/></clipPath><clipPath id="6a233e1fe2"><path d="M 15.234375 6.015625 L 15.234375 10.65625 L 21.097656 8.703125 L 21.097656 4.058594 Z M 15.234375 6.015625 " clip-rule="nonzero"/></clipPath><clipPath id="37e26ac537"><path d="M 12.582031 9.742188 L 17.613281 9.742188 L 17.613281 23.539062 L 12.582031 23.539062 Z M 12.582031 9.742188 " clip-rule="nonzero"/></clipPath><clipPath id="5f09725efa"><path d="M 17.613281 11.417969 L 17.613281 23.53125 L 12.582031 21.851562 L 12.582031 9.742188 Z M 17.613281 11.417969 " clip-rule="nonzero"/></clipPath><clipPath id="25eb6219e0"><path d="M 8.628906 9.722656 L 12.59375 9.722656 L 12.59375 19.386719 L 8.628906 19.386719 Z M 8.628906 9.722656 " clip-rule="nonzero"/></clipPath><clipPath id="89fabc0df8"><path d="M 8.628906 11.058594 L 8.628906 19.386719 L 12.59375 18.066406 L 12.59375 9.734375 Z M 8.628906 11.058594 " clip-rule="nonzero"/></clipPath></defs><g clip-path="url(#81028a84f9)"><g clip-path="url(#27107ab1f2)"><path fill="#006bff" d="M 28.109375 4.0625 L 28.109375 27.046875 L 21.097656 27.046875 L 21.097656 4.0625 Z M 28.109375 4.0625 " fill-opacity="1" fill-rule="nonzero"/></g></g><g clip-path="url(#5340952ea9)"><g clip-path="url(#6a233e1fe2)"><path fill="#c0c0c0" d="M 15.234375 10.65625 L 15.234375 4.058594 L 21.097656 4.058594 L 21.097656 10.65625 Z M 15.234375 10.65625 " fill-opacity="1" fill-rule="nonzero"/></g></g><g clip-path="url(#37e26ac537)"><g clip-path="url(#5f09725efa)"><path fill="#006bff" d="M 17.613281 9.742188 L 17.613281 23.539062 L 12.582031 23.539062 L 12.582031 9.742188 Z M 17.613281 9.742188 " fill-opacity="1" fill-rule="nonzero"/></g></g><g clip-path="url(#25eb6219e0)"><g clip-path="url(#89fabc0df8)"><path fill="#c0c0c0" d="M 8.628906 19.386719 L 8.628906 9.738281 L 12.59375 9.738281 L 12.59375 19.386719 Z M 8.628906 19.386719 " fill-opacity="1" fill-rule="nonzero"/></g></g><g fill="#006bff" fill-opacity="1"><g transform="translate(31.017148, 24.337668)"><g><path d="M 8.65625 -13.234375 L 8.65625 0 L 5.359375 0 L 5.359375 -13.234375 L 0.25 -13.234375 L 0.25 -15.796875 L 13.78125 -15.796875 L 13.78125 -13.234375 Z M 8.65625 -13.234375 "/></g></g></g><g fill="#006bff" fill-opacity="1"><g transform="translate(45.035934, 24.337668)"><g><path d="M 16.890625 -7.96875 C 16.890625 -6.320312 16.5625 -4.875 15.90625 -3.625 C 15.257812 -2.382812 14.332031 -1.429688 13.125 -0.765625 C 11.914062 -0.109375 10.503906 0.21875 8.890625 0.21875 C 6.410156 0.21875 4.460938 -0.507812 3.046875 -1.96875 C 1.640625 -3.425781 0.9375 -5.425781 0.9375 -7.96875 C 0.9375 -10.5 1.640625 -12.472656 3.046875 -13.890625 C 4.453125 -15.316406 6.40625 -16.03125 8.90625 -16.03125 C 11.414062 -16.03125 13.375 -15.3125 14.78125 -13.875 C 16.1875 -12.4375 16.890625 -10.46875 16.890625 -7.96875 Z M 13.515625 -7.96875 C 13.515625 -9.675781 13.109375 -11.007812 12.296875 -11.96875 C 11.492188 -12.9375 10.363281 -13.421875 8.90625 -13.421875 C 7.425781 -13.421875 6.28125 -12.941406 5.46875 -11.984375 C 4.664062 -11.023438 4.265625 -9.6875 4.265625 -7.96875 C 4.265625 -6.238281 4.675781 -4.875 5.5 -3.875 C 6.332031 -2.875 7.460938 -2.375 8.890625 -2.375 C 10.367188 -2.375 11.507812 -2.859375 12.3125 -3.828125 C 13.113281 -4.804688 13.515625 -6.1875 13.515625 -7.96875 Z M 13.515625 -7.96875 "/></g></g></g><g fill="#006bff" fill-opacity="1"><g transform="translate(62.887194, 24.337668)"><g><path d="M 15.53125 -4.5 C 15.53125 -3.070312 14.992188 -1.960938 13.921875 -1.171875 C 12.847656 -0.390625 11.351562 0 9.4375 0 L 1.53125 0 L 1.53125 -15.796875 L 8.765625 -15.796875 C 10.691406 -15.796875 12.148438 -15.457031 13.140625 -14.78125 C 14.128906 -14.113281 14.625 -13.128906 14.625 -11.828125 C 14.625 -10.929688 14.375 -10.171875 13.875 -9.546875 C 13.382812 -8.929688 12.628906 -8.519531 11.609375 -8.3125 C 12.890625 -8.15625 13.863281 -7.75 14.53125 -7.09375 C 15.195312 -6.445312 15.53125 -5.582031 15.53125 -4.5 Z M 11.296875 -11.375 C 11.296875 -12.082031 11.066406 -12.585938 10.609375 -12.890625 C 10.160156 -13.191406 9.492188 -13.34375 8.609375 -13.34375 L 4.84375 -13.34375 L 4.84375 -9.421875 L 8.625 -9.421875 C 9.5625 -9.421875 10.238281 -9.582031 10.65625 -9.90625 C 11.082031 -10.238281 11.296875 -10.726562 11.296875 -11.375 Z M 12.21875 -4.765625 C 12.21875 -6.242188 11.15625 -6.984375 9.03125 -6.984375 L 4.84375 -6.984375 L 4.84375 -2.453125 L 9.15625 -2.453125 C 10.21875 -2.453125 10.992188 -2.644531 11.484375 -3.03125 C 11.972656 -3.414062 12.21875 -3.992188 12.21875 -4.765625 Z M 12.21875 -4.765625 "/></g></g></g><g fill="#006bff" fill-opacity="1"><g transform="translate(79.460963, 24.337668)"><g><path d="M 1.53125 0 L 1.53125 -15.796875 L 4.84375 -15.796875 L 4.84375 0 Z M 1.53125 0 "/></g></g></g></svg>