<svg width="24" height="24" viewBox="0 0 24 24" fill="none" xmlns="http://www.w3.org/2000/svg">
  <path d="M3 18V12C3 7.02944 7.02944 3 12 3C16.9706 3 21 7.02944 21 12V18M3 18V19C3 20.1046 3.89543 21 5 21H7C8.10457 21 9 20.1046 9 19V15C9 13.8954 8.10457 13 7 13H5C3.89543 13 3 13.8954 3 15V18ZM21 18V19C21 20.1046 20.1046 21 19 21H17C15.8954 21 15 20.1046 15 19V15C15 13.8954 15.8954 13 17 13H19C20.1046 13 21 13.8954 21 15V18Z" stroke="currentColor" stroke-width="2" stroke-linecap="round" stroke-linejoin="round"/>
</svg> 